<svg width="99" height="29" viewBox="0 0 99 29" fill="none" xmlns="http://www.w3.org/2000/svg">
<path d="M0.028 15.804C0.028 14.348 0.326667 13.032 0.924 11.856C1.52133 10.68 2.352 9.756 3.416 9.084C4.49867 8.39333 5.72133 8.048 7.084 8.048C8.55867 8.048 9.856 8.496 10.976 9.392V2.28H14.644V23.7H12.124C11.8067 23.7 11.536 23.6253 11.312 23.476C11.088 23.3267 10.976 23.1307 10.976 22.888C9.93067 23.7093 8.652 24.12 7.14 24.12C5.70267 24.12 4.44267 23.7747 3.36 23.084C2.296 22.412 1.47467 21.4507 0.896 20.2C0.317333 18.9307 0.028 17.4653 0.028 15.804ZM3.752 15.832C3.752 17.4 4.06 18.6227 4.676 19.5C5.292 20.3773 6.14133 20.816 7.224 20.816C8.49333 20.816 9.45467 20.396 10.108 19.556C10.78 18.6973 11.116 17.456 11.116 15.832C11.116 14.5067 10.7613 13.4333 10.052 12.612C9.36133 11.7907 8.40933 11.38 7.196 11.38C6.15067 11.38 5.31067 11.8 4.676 12.64C4.06 13.4613 3.752 14.5253 3.752 15.832ZM19.3406 9.728L18.7806 10.008C20.0499 8.328 21.7672 7.488 23.9326 7.488C25.6686 7.488 27.0312 7.964 28.0206 8.916C29.0099 9.868 29.5046 11.1747 29.5046 12.836V23.7H25.8366V13.032C25.8366 12.304 25.6126 11.7533 25.1646 11.38C24.7352 10.988 24.1006 10.792 23.2606 10.792C22.2899 10.792 21.4966 11.1 20.8806 11.716C20.2832 12.332 19.9846 13.1253 19.9846 14.096V23.7H16.3166V2.28H19.9846V9.728H19.3406ZM34.6375 19.192C34.6375 19.7707 34.8149 20.1907 35.1695 20.452C35.5429 20.7133 36.1309 20.844 36.9335 20.844C37.9975 20.844 38.8749 20.536 39.5655 19.92C40.2749 19.304 40.6295 18.548 40.6295 17.652V16.28C40.0135 16.504 39.1922 16.728 38.1655 16.952C37.1949 17.12 36.4575 17.2973 35.9535 17.484C35.4682 17.652 35.1229 17.8667 34.9175 18.128C34.7309 18.3893 34.6375 18.744 34.6375 19.192ZM31.5575 13.816C31.4455 11.8933 31.9682 10.372 33.1255 9.252C34.3015 8.11333 35.9349 7.544 38.0255 7.544C40.0042 7.544 41.5069 7.992 42.5335 8.888C43.5602 9.784 44.0735 11.1 44.0735 12.836V19.724C44.0735 20.1907 44.1109 20.4707 44.1855 20.564L45.6975 23.364C45.1189 23.6813 44.4749 23.84 43.7655 23.84C42.4215 23.84 41.4789 23.336 40.9375 22.328C39.7242 23.4293 38.2215 23.98 36.4295 23.98C34.7122 23.98 33.3495 23.56 32.3415 22.72C31.3335 21.8613 30.8295 20.704 30.8295 19.248C30.8295 18.016 31.1282 17.036 31.7255 16.308C32.3415 15.58 33.1255 15.048 34.0775 14.712C35.0482 14.376 36.2615 14.096 37.7175 13.872C38.5575 13.7413 39.1735 13.6293 39.5655 13.536C39.9762 13.424 40.2469 13.2933 40.3775 13.144C40.5269 12.9947 40.6015 12.78 40.6015 12.5C40.6015 11.268 39.7522 10.652 38.0535 10.652C37.0269 10.652 36.2802 10.8667 35.8135 11.296C35.3655 11.7067 35.1415 12.3973 35.1415 13.368L31.5575 13.816ZM46.8048 7.824H49.3248C49.6048 7.824 49.8475 7.91733 50.0528 8.104C50.2768 8.272 50.4075 8.496 50.4448 8.776C51.5275 7.91733 52.8528 7.488 54.4208 7.488C56.1568 7.488 57.5195 7.964 58.5088 8.916C59.4982 9.868 59.9928 11.1747 59.9928 12.836V23.7H56.3248V13.032C56.3248 12.304 56.1008 11.7533 55.6528 11.38C55.2235 10.988 54.5888 10.792 53.7488 10.792C52.7782 10.792 51.9848 11.1 51.3688 11.716C50.7715 12.332 50.4728 13.1253 50.4728 14.096V23.7H46.8048V7.824ZM65.0847 24.316C65.3087 24.316 65.5234 24.4187 65.7287 24.624C66.214 25.0907 67.1567 25.324 68.5567 25.324C69.7327 25.324 70.6007 25.072 71.1607 24.568C71.7207 24.0827 72.0007 23.3267 72.0007 22.3V21.936C70.9927 22.776 69.7794 23.196 68.3607 23.196C66.998 23.196 65.7847 22.86 64.7207 22.188C63.6567 21.516 62.826 20.5827 62.2287 19.388C61.6314 18.1933 61.3327 16.84 61.3327 15.328C61.3327 13.816 61.622 12.4627 62.2007 11.268C62.798 10.0733 63.6194 9.14933 64.6647 8.496C65.71 7.824 66.8954 7.488 68.2207 7.488C69.7327 7.488 71.002 7.89867 72.0287 8.72C72.0847 8.45867 72.2154 8.244 72.4207 8.076C72.626 7.908 72.8687 7.824 73.1487 7.824H75.6687V22.216C75.6687 24.2133 75.0434 25.7627 73.7927 26.864C72.5607 27.9653 70.834 28.516 68.6127 28.516C66.7087 28.516 65.1687 28.1427 63.9927 27.396C62.8167 26.668 62.098 25.6413 61.8367 24.316H65.0847ZM65.0567 15.356C65.0567 16.812 65.3554 17.932 65.9527 18.716C66.55 19.5 67.39 19.892 68.4727 19.892C69.742 19.892 70.6754 19.5187 71.2727 18.772C71.87 18.0067 72.1687 16.8213 72.1687 15.216C72.1687 13.7227 71.8607 12.612 71.2447 11.884C70.6287 11.156 69.6954 10.792 68.4447 10.792C67.362 10.792 66.522 11.184 65.9247 11.968C65.346 12.752 65.0567 13.8813 65.0567 15.356ZM84.2078 24.092C82.7331 24.092 81.4078 23.728 80.2318 23C79.0745 22.2907 78.1598 21.3107 77.4878 20.06C76.8345 18.7907 76.5078 17.3627 76.5078 15.776C76.5078 14.1893 76.8345 12.7707 77.4878 11.52C78.1598 10.2507 79.0745 9.26133 80.2318 8.552C81.4078 7.824 82.7331 7.46 84.2078 7.46C85.6825 7.46 86.9985 7.81467 88.1558 8.524C89.3318 9.23333 90.2465 10.2227 90.8998 11.492C91.5531 12.7613 91.8798 14.1893 91.8798 15.776C91.8798 17.3627 91.5531 18.7907 90.8998 20.06C90.2465 21.3293 89.3318 22.3187 88.1558 23.028C86.9985 23.7373 85.6825 24.092 84.2078 24.092ZM84.2078 20.788C85.4211 20.788 86.3825 20.3493 87.0918 19.472C87.8011 18.576 88.1558 17.344 88.1558 15.776C88.1558 14.208 87.8011 12.976 87.0918 12.08C86.3825 11.184 85.4211 10.736 84.2078 10.736C82.9945 10.736 82.0238 11.184 81.2958 12.08C80.5865 12.976 80.2318 14.208 80.2318 15.776C80.2318 17.3253 80.5865 18.548 81.2958 19.444C82.0238 20.34 82.9945 20.788 84.2078 20.788Z" fill="#FE890F"/>
<rect x="93.5" y="19" width="5" height="5" rx="2.5" fill="#083A4A"/>
</svg>
